<?xml version="1.0" encoding="utf-8"?>
<!-- Generator: Adobe Illustrator 16.0.0, SVG Export Plug-In . SVG Version: 6.00 Build 0)  -->
<!DOCTYPE svg PUBLIC "-//W3C//DTD SVG 1.1//EN" "http://www.w3.org/Graphics/SVG/1.1/DTD/svg11.dtd">
<svg version="1.1" id="Layer_1_1_" xmlns="http://www.w3.org/2000/svg" xmlns:xlink="http://www.w3.org/1999/xlink" x="0px" y="0px"
	 width="595.281px" height="841.891px" viewBox="0 0 595.281 841.891" enable-background="new 0 0 595.281 841.891"
	 xml:space="preserve">
<g>
	<g>
		
			<rect x="251.226" y="244.172" transform="matrix(-0.0015 1 -1 -0.0015 551.6028 30.5942)" fill="#A57928" width="18.603" height="93.013"/>
	</g>
	<g>
		<rect x="186.025" y="486.054" fill="#A57928" width="223.23" height="18.603"/>
	</g>
	<g>
		<rect x="186.025" y="625.573" fill="#A57928" width="223.23" height="18.603"/>
	</g>
	<g>
		<path fill="#A57928" d="M344.146,244.221h-93.012c-13.952,0-27.904-13.952-27.904-27.904v-9.301
			c0-13.952,13.952-27.904,27.904-27.904h93.012c13.953,0,27.904,13.952,27.904,27.904v9.301
			C372.05,230.269,358.099,244.221,344.146,244.221z M251.134,197.715c-3.72,0-9.301,5.581-9.301,9.302v9.301
			c0,3.721,5.581,9.302,9.301,9.302h93.012c4.65,0,9.301-4.65,9.301-9.302v-9.301c0-3.721-5.58-9.302-9.301-9.302H251.134z"/>
	</g>
	<g>
		
			<rect x="306.942" y="141.908" transform="matrix(-1 0.0029 -0.0029 -1 632.9714 329.3914)" fill="#A57928" width="18.604" height="46.506"/>
	</g>
	<g>
		<rect x="269.736" y="141.908" fill="#A57928" width="18.603" height="46.506"/>
	</g>
	<g>
		<path fill="#A57928" d="M372.05,709.284H223.23c-15.812,0-26.974-3.721-34.415-12.092c-8.371-7.44-12.092-19.532-12.092-34.414
			c0-28.834,0-173.934,0-176.724c0.93-34.415,12.092-53.018,40.926-72.551c1.86-1.859,4.65-5.58,5.581-12.091
			c0.93-7.441-1.86-15.813-6.511-20.463c-18.603-18.603-30.694-31.624-30.694-53.018v-55.808c0-29.764,24.184-46.506,46.506-46.506
			H362.75c22.322,0,46.506,14.882,46.506,46.506v55.808c0,19.533-10.232,32.555-30.693,53.018
			c-4.652,4.65-7.441,13.021-6.512,21.393c0.93,5.581,2.791,9.302,5.58,11.161c29.764,19.533,41.855,40.926,40.926,73.48v176.724
			C418.556,693.472,402.744,709.284,372.05,709.284z M232.531,244.221c-13.952,0-27.904,9.301-27.904,27.903v55.808
			c0,13.952,7.441,21.393,25.114,39.995c8.371,8.371,13.021,22.323,12.091,35.345c-0.93,11.162-5.581,20.464-13.021,25.114
			c-24.184,16.742-32.555,29.764-33.485,57.668c0,3.72,0,117.195,0,175.793c0,10.231,1.86,17.673,6.511,21.394
			c4.65,4.65,11.161,6.511,21.393,6.511h148.82c20.463,0,27.904-7.441,27.904-27.904V486.054c0-26.044-9.303-40.926-33.484-57.668
			c-7.441-4.65-12.092-13.952-13.023-25.114c-0.93-13.951,2.791-27.903,12.092-36.274c19.533-19.532,25.113-28.834,25.113-39.995
			v-55.808c0-20.463-14.881-27.904-27.902-27.904H232.531V244.221z"/>
	</g>
	<g>
		<rect x="325.544" y="281.427" fill="#A57928" width="18.602" height="18.603"/>
	</g>
	<g>
		
			<rect x="362.815" y="281.337" transform="matrix(-0.0076 1 -1 -0.0076 665.5593 -79.2711)" fill="#A57928" width="18.603" height="18.602"/>
	</g>
	<g>
		<polygon fill="#A57928" points="275.317,614.412 264.156,599.529 299.5,569.765 247.414,569.765 300.431,516.748 313.453,529.77 
			292.06,551.163 351.587,551.163 		"/>
	</g>
	<g>
		<rect x="260.435" y="132.606" fill="#A57928" width="74.41" height="18.603"/>
	</g>
</g>
</svg>
