<?xml version="1.0" encoding="utf-8"?>
<!-- Generator: Adobe Illustrator 16.0.0, SVG Export Plug-In . SVG Version: 6.00 Build 0)  -->
<!DOCTYPE svg PUBLIC "-//W3C//DTD SVG 1.1//EN" "http://www.w3.org/Graphics/SVG/1.1/DTD/svg11.dtd">
<svg version="1.1" id="Layer_1" xmlns="http://www.w3.org/2000/svg" xmlns:xlink="http://www.w3.org/1999/xlink" x="0px" y="0px"
	 width="595.281px" height="841.891px" viewBox="0 0 595.281 841.891" enable-background="new 0 0 595.281 841.891"
	 xml:space="preserve">
<title></title>
<path fill="#A57928" d="M465.062,549.675c-1.42-19.679-17.484-35.101-37.205-35.717H167.422
	c-19.72,0.616-35.785,16.038-37.205,35.717c-4.093,26.788-18.603,101.198-18.603,101.941l-2.046,11.162h376.144l-2.047-10.976
	C483.666,651.802,468.97,576.463,465.062,549.675z M132.078,644.176c4.093-21.951,13.394-70.504,16.556-91.524
	c0.324-10.467,8.367-19.067,18.789-20.091h260.435c10.35,1.11,18.291,9.688,18.604,20.091c3.162,21.021,12.277,69.573,16.557,91.524
	H132.078z"/>
<path fill="#A57928" d="M297.64,551.163c-20.548,0-37.205,16.657-37.205,37.205s16.657,37.205,37.205,37.205
	c20.547,0,37.205-16.657,37.205-37.205S318.187,551.163,297.64,551.163z M297.64,606.97c-10.274,0-18.603-8.329-18.603-18.603
	s8.329-18.603,18.603-18.603c10.273,0,18.602,8.329,18.602,18.603S307.914,606.97,297.64,606.97z"/>
<path fill="#A57928" d="M481.992,234.92h20.275v-18.603H93.013v18.603h20.276c3.721,19.719,13.766,72.736,17.115,94.501
	c0.946,6.042,3.029,11.849,6.139,17.114h-43.53v18.603h20.276c3.721,19.719,13.766,72.736,17.115,94.501
	c1.412,19.61,17.371,35.008,37.019,35.717h260.435c19.721-0.616,35.785-16.038,37.205-35.717
	c3.35-21.765,13.395-74.41,17.115-94.501h20.09v-18.603h-43.344c3.109-5.266,5.193-11.072,6.139-17.114
	C468.226,307.656,478.271,254.638,481.992,234.92z M446.46,456.662c-0.313,10.403-8.254,18.98-18.604,20.091H167.422
	c-10.348-1.11-18.29-9.688-18.602-20.091c-3.349-21.021-12.464-69.573-16.743-91.524h331.125
	C458.923,387.089,449.808,435.641,446.46,456.662z M446.46,326.444c-0.313,10.403-8.254,18.98-18.604,20.091H167.422
	c-10.348-1.11-18.29-9.688-18.602-20.091c-3.349-21.021-12.464-69.573-16.743-91.524h331.125
	C458.923,256.871,449.808,305.424,446.46,326.444z"/>
<rect x="130.218" y="179.112" fill="#A57928" width="334.844" height="18.603"/>
</svg>
