<?xml version="1.0" encoding="utf-8"?>
<!-- Generator: Adobe Illustrator 16.0.0, SVG Export Plug-In . SVG Version: 6.00 Build 0)  -->
<!DOCTYPE svg PUBLIC "-//W3C//DTD SVG 1.1//EN" "http://www.w3.org/Graphics/SVG/1.1/DTD/svg11.dtd">
<svg version="1.1" id="Layer_1" xmlns="http://www.w3.org/2000/svg" xmlns:xlink="http://www.w3.org/1999/xlink" x="0px" y="0px"
	 width="24px" height="24px" viewBox="0 0 24 24" enable-background="new 0 0 24 24" xml:space="preserve">
<g>
	<path fill="#A57928" d="M12,4.409c-4.175,0-7.591,3.416-7.591,7.591c0,4.176,3.416,7.592,7.591,7.592
		c4.176,0,7.592-3.416,7.592-7.592C19.592,7.825,16.176,4.409,12,4.409z M12.686,18.787V18.17c0-0.411-0.274-0.687-0.686-0.687
		s-0.686,0.275-0.686,0.687v0.617c-3.222-0.343-5.826-2.88-6.101-6.102H5.83c0.411,0,0.686-0.274,0.686-0.686
		s-0.274-0.686-0.686-0.686H5.213c0.275-3.222,2.879-5.826,6.101-6.101V5.83c0,0.412,0.274,0.686,0.686,0.686
		s0.686-0.273,0.686-0.686V5.213c3.222,0.343,5.827,2.879,6.102,6.101H18.17c-0.411,0-0.687,0.274-0.687,0.686
		s0.275,0.686,0.687,0.686h0.617C18.513,15.907,15.907,18.513,12.686,18.787z"/>
	<path fill="#A57928" d="M10.672,13.329l0.885,2.656l3.606-7.148l-7.212,3.606L10.672,13.329z M11.684,14.403l-0.442-1.265
		l-0.127-0.316l-0.316-0.127l-1.265-0.442l4.112-2.024L11.684,14.403z"/>
</g>
</svg>
