<?xml version="1.0" encoding="utf-8"?>
<!-- Generator: Adobe Illustrator 16.0.0, SVG Export Plug-In . SVG Version: 6.00 Build 0)  -->
<!DOCTYPE svg PUBLIC "-//W3C//DTD SVG 1.1//EN" "http://www.w3.org/Graphics/SVG/1.1/DTD/svg11.dtd">
<svg version="1.1" id="Layer_1" xmlns="http://www.w3.org/2000/svg" xmlns:xlink="http://www.w3.org/1999/xlink" x="0px" y="0px"
	 width="800px" height="800px" viewBox="0 0 800 800" enable-background="new 0 0 800 800" xml:space="preserve">
<g>
	<path fill="#A57928" d="M60.676,647.238l45.742-45.742l46.789,47.568c0.997,1.01,2.128,1.786,3.305,2.453l10.822-30.738
		l-50.168-50.998c-2.795-2.846-6.613-4.447-10.597-4.465c-3.784,0.334-7.814,1.561-10.634,4.381l-56.401,56.396
		c-5.841,5.841-5.841,15.303,0,21.145C45.373,653.078,54.835,653.078,60.676,647.238z"/>
	<path fill="#A57928" d="M628.721,352.27c-2.132-5.934-7.761-9.889-14.066-9.889c-6.31,0-11.938,3.955-14.068,9.889l-51.003,141.772
		L466.81,263.999c-2.131-5.94-7.76-9.896-14.066-9.896s-11.938,3.955-14.067,9.896l-83.724,232.715L303.04,352.437
		c-2.132-5.941-7.76-9.896-14.068-9.896s-11.936,3.955-14.067,9.896l-99.548,276.688c-0.021-0.025-0.038-0.052-0.059-0.066
		l-23.801,66.901c0,0-24.235,0.3-30.994,0.366v-23.695l21.044,21.393l11.056-31.396l-35.437-36.029
		c-2.795-2.845-6.613-4.447-10.597-4.464c-3.784,0.092-7.814,1.561-10.634,4.381L39.534,682.91c-5.841,5.842-5.841,15.312,0,21.145
		c5.841,5.841,15.303,5.841,21.144,0l29.921-29.921v36.671c-0.008,0.251-0.067,0.482-0.067,0.743
		c0.084,8.2,6.763,14.802,14.948,14.802c0.055,0,0.104,0,0.154,0c17.435-0.184,34.891-0.259,52.338-0.409
		c43.264-0.357,86.498-0.617,129.744-0.774c45.008-0.158,89.915-0.218,134.751-0.158c19.848,0.023,39.681,0.058,59.478,0.125
		c44.811,0.149,89.418,0.417,133.832,0.793c-0.667,0.174-1.359,0.231-2.054,0.315h128.276c4.873,0,9.438-2.369,12.232-6.356
		c2.804-3.98,3.486-9.079,1.836-13.66L628.721,352.27z M613.744,354.499l40.466,110.029l-45.692,38.706l-33.758-37.285
		L613.744,354.499z M452.959,287.337l44.377,123.341l-46.104,50.898l-44.111-46.837L452.959,287.337z M288.971,352.657
		l45.979,115.087l-44.323,49.49l-50.504-30.856L288.971,352.657z M282.834,696.5H165.89l0.238-0.657l71.525-201.582l41.104,25.522
		c2.837,3.139,6.863,4.924,11.085,4.924c0.046,0,0.096,0,0.146,0c4.272-0.043,8.323-1.91,11.131-5.141l36.423-41.605l12.517,33.917
		L282.834,696.5z M479.454,711.469h-55.496H299.321l0.019-0.058h-0.264l44.885-124.02l17.677-49.14l42.652-118.55l35.262,37.424
		c3.146,3.342,7.529,10.237,12.111,10.237c0.056,0,0.106,0,0.162,0c4.643-0.047,9.052-7.034,12.168-10.469l36.25-40.025
		l42.6,118.411l17.683,49.141l45.367,127.048H479.454L479.454,711.469z M651.018,710.334h-32.761h-0.366l-67.789-183.429
		l18.688-51.938l27.037,29.867c3.398,3.76,8.221,5.898,13.279,5.898c0.057,0,0.116,0,0.176,0c5.116-0.051,9.97-2.288,13.334-6.158
		l36.388-30.307l85.103,236.065H651.018L651.018,710.334z"/>
	<path fill="#A57928" d="M60.676,590.425l45.742-45.742l46.789,47.569c2.929,2.979,6.792,4.464,10.66,4.464
		c3.784,0,7.572-1.428,10.484-4.289c5.887-5.791,5.966-15.262,0.176-21.145l-57.361-58.314c-2.795-2.847-6.613-4.447-10.597-4.465
		c-3.784-0.226-7.814,1.553-10.634,4.372l-56.401,56.404c-5.841,5.842-5.841,15.313,0,21.146
		C45.373,596.264,54.835,596.264,60.676,590.425z"/>
	<path fill="#A57928" d="M103.092,277.808c29.78,0,54.01-24.231,54.01-54.012c0-29.778-24.23-54.01-54.01-54.01
		c-29.78,0-54.01,24.231-54.01,54.01C49.082,253.577,73.313,277.808,103.092,277.808z M103.092,199.692
		c13.292,0,24.106,10.813,24.106,24.104s-10.814,24.106-24.106,24.106s-24.106-10.814-24.106-24.106S89.801,199.692,103.092,199.692
		z"/>
	<path fill="#A57928" d="M591.478,102.368c0.093,0,0.176,0,0.268,0c0.476,0.018,43.063-0.517,66.568,22.979
		c2.804,2.803,6.471,4.205,10.158,4.205c0.834,0,1.668-0.101,2.503-0.233c0.817,0.133,1.651,0.233,2.503,0.233
		c3.673,0,7.344-1.402,10.146-4.205c23.379-23.381,65.684-22.996,66.551-22.979c7.961,0.208,14.486-6.091,14.67-14.018
		c0.185-7.918-6.092-14.494-14.019-14.678c-2.053-0.092-47.493-0.742-79.853,24.69c-32.379-25.416-77.828-24.707-79.855-24.69
		c-7.918,0.185-14.176,6.733-14.01,14.645C577.276,96.143,583.685,102.368,591.478,102.368z"/>
	<path fill="#A57928" d="M494.771,171.181c0.326,0,32.343-0.284,50.039,21.811c2.828,3.538,7,5.382,11.216,5.382
		c0.667,0,1.325-0.233,1.984-0.334c0.677,0.101,1.327,0.334,2.003,0.334c4.205,0,8.377-1.844,11.214-5.382
		c17.655-22.053,49.329-21.861,50.09-21.803c7.852,0.217,14.483-6.024,14.711-13.936c0.231-7.927-6-14.534-13.937-14.761
		c-1.692-0.065-37.348-0.709-64.081,22.988c-26.726-23.688-62.361-23.021-64.082-22.988c-7.918,0.227-14.15,6.834-13.926,14.761
		C480.235,165.173,486.902,171.698,494.771,171.181z"/>
</g>
</svg>
