<?xml version="1.0" encoding="utf-8"?>
<!-- Generator: Adobe Illustrator 16.0.0, SVG Export Plug-In . SVG Version: 6.00 Build 0)  -->
<!DOCTYPE svg PUBLIC "-//W3C//DTD SVG 1.1//EN" "http://www.w3.org/Graphics/SVG/1.1/DTD/svg11.dtd">
<svg version="1.1" xmlns="http://www.w3.org/2000/svg" xmlns:xlink="http://www.w3.org/1999/xlink" x="0px" y="0px" width="512px"
	 height="512px" viewBox="0 0 512 512" enable-background="new 0 0 512 512" xml:space="preserve">
<g id="Calque_3" display="none">
	<circle display="inline" fill="#FFFFFF" cx="259.166" cy="251.833" r="198.666"/>
</g>
<g id="Layer_1" display="none">
	<path display="inline" d="M208.167,36.833c-98,25.333-169.834,114.105-169.834,215c0,121.963,98.871,220.835,220.834,220.835
		S480,373.796,480,251.833S381.129,30.999,259.166,30.999c-9.062,0-19,0-40.666,2.834 M259.166,437.903
		c-102.764,0-186.07-83.308-186.07-186.07c0-102.764,83.307-186.069,186.07-186.069c102.763,0,186.07,83.306,186.07,186.069
		S361.929,437.903,259.166,437.903z"/>
	<g display="inline">
		<g>
			<path d="M109.846,274.513c0-14.263,11.562-25.824,25.825-25.824c11.946,0,21.993,8.113,24.943,19.128l47.972-22.332
				c0.809-6.506,2.832-12.635,5.854-18.142l-22.154-22.155l30.366,11.074c4.37-4.485,9.558-8.163,15.324-10.803v-54.847
				c-1.138,0.153-2.297,0.24-3.477,0.24c-14.262,0-25.825-11.563-25.825-25.825c0-10.812,6.646-20.066,16.074-23.914l-2.529-11.358
				c-41.693,9.465-77.431,34.6-100.692,68.89l13.628,8.664c1.43,0.909,1.873,2.771,0.99,4.161c-0.882,1.387-2.759,1.776-4.187,0.866
				l-13.681-8.697c-16.036,25.563-25.317,55.792-25.317,88.193c0,11.076,1.093,21.896,3.16,32.365l14.537-3.236
				C110.128,278.9,109.846,276.739,109.846,274.513z M289.499,398.796c-1.413,0.238-2.862,0.37-4.345,0.37
				c-14.262,0-25.823-11.562-25.823-25.824c0-12.26,8.545-22.516,20.001-25.156l-20.266-45.366
				c-4.385-0.009-8.638-0.577-12.697-1.627l4.389-4.116c2.728,0.503,5.535,0.779,8.408,0.779c25.416,0,46.021-20.605,46.021-46.021
				c0-7.098-1.61-13.818-4.479-19.821l2.998-4.983c0.055,0.096,0.114,0.188,0.168,0.284l54.649,0.853
				c-0.235-1.4-0.364-2.838-0.364-4.307c0-14.263,11.563-25.825,25.825-25.825c11.579,0,21.379,7.622,24.655,18.123l12.263-2.729
				c-9.729-41.119-34.724-76.334-68.679-99.322l-8.574,13.484c-0.896,1.412-2.75,1.843-4.141,0.959
				c-1.39-0.883-1.787-2.743-0.889-4.157l8.604-13.53c-25.532-15.983-55.714-25.233-88.059-25.233
				c-10.634,0-21.031,1.012-31.11,2.92l2.442,10.967c1.304-0.203,2.64-0.311,4.001-0.311c14.263,0,25.824,11.563,25.824,25.825
				c0,12.072-8.284,22.208-19.479,25.037l23.776,51.075c2.091,0.223,4.144,0.573,6.151,1.041l-4.463,4.186
				c-2.328-0.363-4.714-0.555-7.145-0.555c-25.417,0-46.021,20.604-46.021,46.021c0,5.248,0.891,10.285,2.508,14.983l-3.235,5.378
				c-0.023-0.056-0.05-0.109-0.074-0.164h-50.969c0.078,0.817,0.121,1.646,0.121,2.482c0,14.263-11.562,25.824-25.825,25.824
				c-9.903,0-18.499-5.575-22.832-13.758l-15.462,3.443c9.833,41.815,35.458,77.535,70.238,100.534l9.728-15.302
				c0.898-1.412,2.753-1.842,4.142-0.961c1.387,0.884,1.786,2.746,0.886,4.157l-9.733,15.31
				c25.205,15.398,54.829,24.275,86.527,24.275c11.595,0,22.911-1.19,33.838-3.45l-3.49-15.676
				C289.505,398.873,289.507,398.835,289.499,398.796z M389.036,330.505l12.142,7.722c15.351-25.177,24.193-54.751,24.193-86.394
				c0-11.152-1.107-22.047-3.202-32.584l-12.433,2.769c0.043,0.608,0.071,1.221,0.071,1.841c0,14.263-11.562,25.824-25.823,25.824
				c-11.66,0-21.514-7.729-24.722-18.345l-49.146,21.954c-0.185,6.496-1.566,12.693-3.96,18.361l22.624,23.342l-29.76-11.381
				c-3.982,4.988-8.881,9.209-14.441,12.414l0.77-0.129l-0.806,51.634c0.204-0.005,0.406-0.016,0.61-0.016
				c14.264,0,25.825,11.562,25.825,25.823c0,10.71-6.519,19.896-15.804,23.808c0.061,0.151,0.117,0.305,0.153,0.469l3.483,15.648
				c41.239-10.094,76.437-35.573,99.164-70.015l-12.141-7.719c-1.43-0.909-1.873-2.771-0.99-4.16
				C385.731,329.983,387.605,329.595,389.036,330.505z"/>
		</g>
	</g>
	<g display="inline">
		<path d="M248.607,130.669c0.634,3.009,1.25,5.924,1.664,7.431c-0.207,0.624-1.396,1.404-2.505,1.64
			c-0.047,0.01-2.072-2.027-4.811-4.252l-13.478-10.981c-3.376-2.719-5.313-4.34-6.291-4.858c-0.135,0.511,0.031,1.297,0.392,3.009
			l1.893,8.977c0.79,3.747,1.706,7.181,2.479,8.321c0.621,0.884,1.754,0.984,2.996,0.916l1.334-0.088
			c0.448,0.292,0.561,1.283,0.341,1.619c-2.518,0.435-4.379,0.778-6.23,1.168c-1.711,0.361-3.414,0.769-5.152,1.231
			c-0.336-0.22-0.634-1.172-0.342-1.619l0.758-0.306c1.201-0.495,2.057-1.014,2.223-2.063c0.246-1.355-0.347-4.857-1.137-8.604
			l-2.478-11.753c-0.536-2.544-0.739-3.273-1.153-3.864c-0.535-0.707-1.301-1.127-2.969-1.017l-1.334,0.087
			c-0.402-0.301-0.591-1.422-0.157-1.658c2.194-0.365,4.518-0.808,6.415-1.207c1.573-0.332,2.906-0.66,3.857-0.958
			c0.902,1.984,4.651,4.867,9.858,8.94l4.853,3.761c2.542,1.979,4.226,3.313,5.514,4.153c0.087-0.501-0.079-1.288-0.254-2.12
			l-1.347-6.385c-0.79-3.748-1.705-7.18-2.477-8.321c-0.622-0.884-1.707-0.993-2.997-0.915l-1.288,0.078
			c-0.448-0.292-0.56-1.283-0.341-1.619c2.518-0.435,4.333-0.769,6.23-1.168c1.711-0.361,3.367-0.759,5.153-1.23
			c0.335,0.219,0.633,1.171,0.341,1.618l-0.804,0.314c-1.163,0.439-1.965,0.995-2.177,2.054c-0.245,1.356,0.301,4.866,1.091,8.614
			L248.607,130.669z"/>
	</g>
	<g display="inline">
		<path d="M281.823,357.431c4.258-0.897,7.147-0.251,8.235,0.099c1.096,0.834,2.397,4.038,3.063,7.185
			c-0.198,0.669-1.252,0.94-1.729,0.511c-1.56-2.813-5.559-6.416-9.49-5.588c-3.424,0.722-4.5,3.413-4.012,5.728
			c0.789,3.747,4.774,5.227,7.844,6.031c3.683,0.962,7.923,2.968,8.888,7.55c1.147,5.217-2.162,9.685-8.871,11.099
			c-1.526,0.322-3.464,0.537-5.431,0.371c-0.641-0.058-1.077-0.063-1.652-0.037c-0.584-0.94-1.573-3.342-2.227-6.441
			c0.113-0.604,1.261-0.894,1.775-0.519c1.283,2.193,3.984,5.151,7.316,4.449c3.053-0.644,4.3-2.982,3.813-5.298
			c-0.449-2.128-2.757-3.673-5.322-4.388l-3.396-0.977c-3.19-0.922-7.412-2.835-8.483-7.926
			C270.943,363.59,274.837,358.902,281.823,357.431z"/>
	</g>
	<g display="inline">
		<path d="M120.922,253.91c0.457,1.017,0.972,1.63,1.458,1.867c0.847,0.353,2.494,0.827,5.672,1.463
			c5.892,1.126,18.475,3.74,24.969,4.74c0.289,0.229,0.564,0.847,0.691,1.449c0.106,0.508,0.056,0.954-0.107,1.325
			c-1.003,0.743-2.522,1.789-3.701,2.617l-3.986,2.869c-1.344,0.96-2.605,1.854-3.211,2.416c0.875,0.253,2.102,0.572,3.525,0.901
			l5.177,1.181c1.626,0.381,3.076,0.607,4.759,1.026c0.281,0.182,0.546,0.754,0.692,1.447c0.107,0.51,0.027,0.816-0.117,1.281
			c-1.788,1.149-5.561,3.879-8.701,6.184l-14.964,11.079c-2.467,1.824-2.639,2.151-2.641,3.746l0.012,1.205
			c-0.384,0.468-1.32,0.617-1.658,0.156c-0.269-1.731-0.632-3.684-1.129-6.044c-0.429-2.036-0.856-3.83-1.319-5.569
			c0.107-0.409,1.225-0.838,1.599-0.435l0.314,0.804c0.315,0.805,0.615,1.079,0.938,1.011c0.325-0.067,2.295-1.498,5.231-3.614
			l9.259-6.736c2.597-1.899,3.745-2.867,4.739-3.656c-1.042-0.359-3.441-0.967-5.263-1.354l-1.468-0.319
			c-0.81-0.167-1.44-0.179-1.717-0.121c-0.277,0.061-1.181,0.588-1.605,0.87l-8.827,6.5c-2.089,1.552-2.344,1.943-2.159,3.741
			l0.051,0.473c-0.272,0.54-1.356,0.673-1.649,0.202c-0.327-2.009-0.66-3.822-1.089-5.858c-0.498-2.359-0.915-4.107-1.261-5.292
			c0.022-0.585,1.28-0.803,1.58-0.526l0.351,0.748c0.256,0.525,0.587,1.181,0.91,1.112c0.37-0.077,0.841-0.371,1.301-0.71l2.9-2.061
			c0.883-0.621,2.006-1.486,2.75-2.078c-1.069-0.258-2.333-0.523-3.448-0.771l-1.014-0.223c-1.924-0.417-3.429-0.68-3.707-0.62
			c-0.323,0.067-0.424,0.282-0.453,1.063l0.026,1.732c-0.254,0.394-1.329,0.571-1.648,0.203c-0.19-1.36-0.495-3.036-0.817-4.563
			c-0.38-1.806-0.788-3.507-1.134-4.69c0.153-0.419,1.244-0.745,1.656-0.396l0.551,1.236c0.657,1.507,0.725,1.828,3.841,2.863
			c2.132,0.71,4.689,1.38,6.019,1.729c0.92,0.24,2.39,0.559,2.621,0.511c0.139-0.029,0.407-0.134,1.078-0.614l4.215-3.159
			c2.292-1.739,3.635-2.699,4.226-3.112c-5.837-1.091-12.25-2.396-18.362-3.429c-0.854-0.157-3.492-0.52-4.001-0.413
			c-0.462,0.099-0.492,0.877-0.55,1.519l-0.064,1.076c-0.338,0.458-1.329,0.569-1.648,0.202c-0.22-1.5-0.573-3.405-0.866-4.795
			c-0.341-1.619-0.671-2.95-1.036-4.228c0.143-0.465,1.151-0.728,1.589-0.48L120.922,253.91z"/>
	</g>
	<g display="inline">
		<path d="M385.222,221.606c-1.296,0.271-1.379,0.338-1.114,1.588l0.673,3.193c0.508,2.404,0.949,2.893,3.268,2.888l1.204-0.014
			c0.438,0.246,0.683,1.402,0.314,1.723c-1.5,0.22-3.176,0.524-4.936,0.896c-1.757,0.37-3.413,0.769-4.874,1.173
			c-0.466-0.145-0.757-1.29-0.407-1.702l1.107-0.476c2.125-0.932,2.378-1.563,1.87-3.97l-0.673-3.193
			c-0.265-1.25-0.32-1.286-1.709-0.994l-5.507,1.16c-2.128,0.449-3.567,0.946-4.237,1.667c-0.707,0.777-0.893,1.734-0.181,5.111
			c0.85,4.025,1.32,5.57,7.086,7.014c0.587,0.263,0.645,1.458,0.129,1.761c-2.444,0.321-6.428,0.002-7.813-0.384
			c-0.425-2.472-1.314-6.924-2.114-10.718l-1.268-6.014c-0.469-2.221-0.992-4.479-1.817-7.93c0.2-0.43,1.312-0.662,1.62-0.342
			l0.782,2.107c0.762,2.013,1.099,2.233,5.354,1.335l17.26-3.638c4.211-0.889,4.428-1.224,4.406-3.394l-0.012-1.206
			c0.188-0.476,1.264-0.652,1.639-0.249c0.365,2.194,0.798,4.472,1.266,6.691l2.066,9.811c0.624,2.96,1.229,5.587,1.446,6.17
			c-0.73,0.202-3.994,1.229-7.045,2.113c-0.548-0.078-0.865-1.122-0.546-1.674c1.511-0.85,2.765-1.79,3.284-2.528
			c0.694-1.063,0.956-2.567,0.479-4.836l-0.78-3.701c-0.322-1.527-0.413-1.508-2.126-1.146L385.222,221.606z"/>
	</g>
</g>
<g id="Calque_2">
	<polygon fill="#FFFFFF" stroke="#000000" stroke-width="2" stroke-miterlimit="10" points="149.085,138.624 274.089,236.842 
		366.717,364.139 241.712,265.924 	"/>
	<circle cx="257.9" cy="251.382" r="12.73"/>
</g>
</svg>
